<svg width="277" height="100" viewBox="0 0 277 100" fill="none" xmlns="http://www.w3.org/2000/svg">
    <path d="M16.492 50C17.9853 50 19.292 49.8227 20.412 49.468C21.532 49.0947 22.4653 48.5813 23.212 47.928C23.9587 47.2747 24.5187 46.5 24.892 45.604C25.2653 44.6893 25.452 43.6813 25.452 42.58C25.452 40.3773 24.724 38.6973 23.268 37.54C21.812 36.3827 19.6093 35.804 16.66 35.804H11.34V50H16.492ZM35.476 71H29.624C28.4667 71 27.6267 70.552 27.104 69.656L17.696 56.076C17.3787 55.6093 17.0333 55.2733 16.66 55.068C16.2867 54.8627 15.7267 54.76 14.98 54.76H11.34V71H4.788V30.68H16.66C19.3107 30.68 21.588 30.9507 23.492 31.492C25.4147 32.0333 26.992 32.808 28.224 33.816C29.456 34.8053 30.3613 36 30.94 37.4C31.5373 38.8 31.836 40.3587 31.836 42.076C31.836 43.476 31.6213 44.7827 31.192 45.996C30.7813 47.2093 30.1747 48.3107 29.372 49.3C28.588 50.2893 27.6173 51.148 26.46 51.876C25.3027 52.604 23.9867 53.1733 22.512 53.584C23.3147 54.0693 24.0053 54.7507 24.584 55.628L35.476 71ZM56.0875 53.5C56.0875 52.492 55.9382 51.5587 55.6395 50.7C55.3595 49.8227 54.9395 49.0667 54.3795 48.432C53.8195 47.7787 53.1195 47.2747 52.2795 46.92C51.4582 46.5467 50.5062 46.36 49.4235 46.36C47.2395 46.36 45.5222 46.9853 44.2715 48.236C43.0208 49.4867 42.2275 51.2413 41.8915 53.5H56.0875ZM41.7235 57.196C41.7982 58.82 42.0502 60.2293 42.4795 61.424C42.9088 62.6 43.4782 63.58 44.1875 64.364C44.9155 65.148 45.7742 65.736 46.7635 66.128C47.7715 66.5013 48.8915 66.688 50.1235 66.688C51.2995 66.688 52.3168 66.5573 53.1755 66.296C54.0342 66.016 54.7808 65.7173 55.4155 65.4C56.0502 65.064 56.5915 64.7653 57.0395 64.504C57.4875 64.224 57.8982 64.084 58.2715 64.084C58.7568 64.084 59.1302 64.2707 59.3915 64.644L61.0995 66.856C60.3902 67.696 59.5875 68.4053 58.6915 68.984C57.7955 69.5627 56.8435 70.0387 55.8355 70.412C54.8275 70.7667 53.7915 71.0187 52.7275 71.168C51.6635 71.336 50.6275 71.42 49.6195 71.42C47.6408 71.42 45.8022 71.0933 44.1035 70.44C42.4235 69.768 40.9582 68.788 39.7075 67.5C38.4755 66.212 37.5048 64.616 36.7955 62.712C36.1048 60.808 35.7595 58.6147 35.7595 56.132C35.7595 54.1533 36.0675 52.3053 36.6835 50.588C37.3182 48.8707 38.2142 47.3773 39.3715 46.108C40.5475 44.8387 41.9662 43.84 43.6275 43.112C45.3075 42.3653 47.2022 41.992 49.3115 41.992C51.0662 41.992 52.6902 42.2813 54.1835 42.86C55.6768 43.42 56.9648 44.2507 58.0475 45.352C59.1302 46.4533 59.9702 47.8067 60.5675 49.412C61.1835 50.9987 61.4915 52.8093 61.4915 54.844C61.4915 55.7773 61.3888 56.4027 61.1835 56.72C60.9782 57.0373 60.6048 57.196 60.0635 57.196H41.7235ZM82.3655 58.512C80.2188 58.5867 78.4082 58.764 76.9335 59.044C75.4588 59.3053 74.2642 59.6507 73.3495 60.08C72.4348 60.4907 71.7722 60.9853 71.3615 61.564C70.9695 62.1427 70.7735 62.7773 70.7735 63.468C70.7735 64.14 70.8762 64.7187 71.0815 65.204C71.3055 65.6707 71.6042 66.0627 71.9775 66.38C72.3695 66.6787 72.8175 66.9027 73.3215 67.052C73.8442 67.1827 74.4135 67.248 75.0295 67.248C76.5975 67.248 77.9415 66.9587 79.0615 66.38C80.2002 65.7827 81.3015 64.924 82.3655 63.804V58.512ZM66.4055 46.416C69.6348 43.4107 73.4802 41.908 77.9415 41.908C79.5842 41.908 81.0402 42.1787 82.3095 42.72C83.5975 43.2427 84.6708 43.9893 85.5295 44.96C86.4068 45.9307 87.0695 47.088 87.5175 48.432C87.9842 49.7573 88.2175 51.232 88.2175 52.856V71H85.5295C84.9508 71 84.5122 70.916 84.2135 70.748C83.9148 70.5613 83.6628 70.1973 83.4575 69.656L82.8695 67.332C82.1415 67.9853 81.4228 68.5733 80.7135 69.096C80.0042 69.6 79.2668 70.0293 78.5015 70.384C77.7548 70.7387 76.9428 71 76.0655 71.168C75.2068 71.3547 74.2548 71.448 73.2095 71.448C72.0522 71.448 70.9695 71.2893 69.9615 70.972C68.9722 70.6547 68.1135 70.1787 67.3855 69.544C66.6575 68.8907 66.0788 68.088 65.6495 67.136C65.2388 66.184 65.0335 65.064 65.0335 63.776C65.0335 62.6747 65.3228 61.6013 65.9015 60.556C66.4988 59.5107 67.4695 58.5773 68.8135 57.756C70.1762 56.916 71.9588 56.2253 74.1615 55.684C76.3828 55.1427 79.1175 54.8347 82.3655 54.76V52.856C82.3655 50.8027 81.9268 49.272 81.0495 48.264C80.1722 47.256 78.8842 46.752 77.1855 46.752C76.0282 46.752 75.0575 46.9013 74.2735 47.2C73.4895 47.48 72.8082 47.788 72.2295 48.124C71.6508 48.46 71.1375 48.7773 70.6895 49.076C70.2415 49.356 69.7655 49.496 69.2615 49.496C68.8508 49.496 68.4962 49.3933 68.1975 49.188C67.9175 48.964 67.6842 48.6933 67.4975 48.376L66.4055 46.416ZM115.458 48.04C115.271 48.2827 115.094 48.4693 114.926 48.6C114.758 48.7307 114.515 48.796 114.198 48.796C113.88 48.796 113.544 48.684 113.19 48.46C112.854 48.236 112.443 47.9933 111.958 47.732C111.491 47.452 110.922 47.2 110.25 46.976C109.578 46.752 108.738 46.64 107.73 46.64C106.423 46.64 105.275 46.8733 104.286 47.34C103.315 47.8067 102.494 48.4787 101.822 49.356C101.168 50.2147 100.674 51.2693 100.338 52.52C100.02 53.752 99.8616 55.1427 99.8616 56.692C99.8616 58.2973 100.039 59.7253 100.394 60.976C100.748 62.2267 101.252 63.2813 101.906 64.14C102.578 64.9987 103.38 65.652 104.314 66.1C105.266 66.548 106.33 66.772 107.506 66.772C108.663 66.772 109.606 66.632 110.334 66.352C111.062 66.072 111.668 65.764 112.154 65.428C112.639 65.092 113.05 64.784 113.386 64.504C113.74 64.224 114.114 64.084 114.506 64.084C114.991 64.084 115.364 64.2707 115.626 64.644L117.334 66.856C116.643 67.696 115.878 68.4053 115.038 68.984C114.198 69.5627 113.311 70.0387 112.378 70.412C111.444 70.7667 110.474 71.0187 109.466 71.168C108.458 71.336 107.44 71.42 106.414 71.42C104.64 71.42 102.979 71.0933 101.43 70.44C99.8989 69.768 98.5549 68.8067 97.3976 67.556C96.2589 66.2867 95.3536 64.7467 94.6816 62.936C94.0282 61.1067 93.7016 59.0253 93.7016 56.692C93.7016 54.5827 94.0002 52.632 94.5976 50.84C95.1949 49.0293 96.0629 47.4707 97.2016 46.164C98.3589 44.8573 99.7869 43.84 101.486 43.112C103.184 42.3653 105.144 41.992 107.366 41.992C109.438 41.992 111.258 42.328 112.826 43C114.412 43.672 115.822 44.624 117.054 45.856L115.458 48.04ZM131.332 71.448C128.961 71.448 127.132 70.7853 125.844 69.46C124.574 68.116 123.94 66.2307 123.94 63.804V47.172H120.804C120.468 47.172 120.178 47.0693 119.936 46.864C119.693 46.64 119.572 46.3133 119.572 45.884V43.448L124.192 42.776L125.508 34.516C125.601 34.1987 125.76 33.9467 125.984 33.76C126.208 33.5547 126.506 33.452 126.88 33.452H129.96V42.832H137.884V47.172H129.96V63.384C129.96 64.4107 130.212 65.1947 130.716 65.736C131.22 66.2773 131.892 66.548 132.732 66.548C133.198 66.548 133.6 66.492 133.936 66.38C134.272 66.2493 134.561 66.1187 134.804 65.988C135.046 65.8387 135.252 65.708 135.42 65.596C135.606 65.4653 135.784 65.4 135.952 65.4C136.288 65.4 136.558 65.5867 136.764 65.96L138.556 68.9C137.622 69.7213 136.521 70.356 135.252 70.804C133.982 71.2333 132.676 71.448 131.332 71.448ZM156.293 51.232C157.749 51.232 159.028 51.0453 160.129 50.672C161.249 50.2987 162.173 49.776 162.901 49.104C163.648 48.4133 164.208 47.5827 164.581 46.612C164.954 45.6413 165.141 44.5587 165.141 43.364C165.141 42.188 164.954 41.1333 164.581 40.2C164.226 39.2667 163.685 38.4733 162.957 37.82C162.229 37.1667 161.305 36.672 160.185 36.336C159.084 35.9813 157.786 35.804 156.293 35.804H150.301V51.232H156.293ZM156.293 30.68C158.925 30.68 161.202 30.988 163.125 31.604C165.066 32.22 166.662 33.088 167.913 34.208C169.182 35.3093 170.125 36.644 170.741 38.212C171.357 39.7613 171.665 41.4787 171.665 43.364C171.665 45.2867 171.338 47.0507 170.685 48.656C170.032 50.2427 169.061 51.6147 167.773 52.772C166.485 53.9107 164.88 54.8067 162.957 55.46C161.053 56.0947 158.832 56.412 156.293 56.412H150.301V71H143.749V30.68H156.293ZM191.194 58.512C189.047 58.5867 187.236 58.764 185.762 59.044C184.287 59.3053 183.092 59.6507 182.178 60.08C181.263 60.4907 180.6 60.9853 180.19 61.564C179.798 62.1427 179.602 62.7773 179.602 63.468C179.602 64.14 179.704 64.7187 179.91 65.204C180.134 65.6707 180.432 66.0627 180.806 66.38C181.198 66.6787 181.646 66.9027 182.15 67.052C182.672 67.1827 183.242 67.248 183.858 67.248C185.426 67.248 186.77 66.9587 187.89 66.38C189.028 65.7827 190.13 64.924 191.194 63.804V58.512ZM175.234 46.416C178.463 43.4107 182.308 41.908 186.77 41.908C188.412 41.908 189.868 42.1787 191.138 42.72C192.426 43.2427 193.499 43.9893 194.358 44.96C195.235 45.9307 195.898 47.088 196.346 48.432C196.812 49.7573 197.046 51.232 197.046 52.856V71H194.358C193.779 71 193.34 70.916 193.042 70.748C192.743 70.5613 192.491 70.1973 192.286 69.656L191.698 67.332C190.97 67.9853 190.251 68.5733 189.542 69.096C188.832 69.6 188.095 70.0293 187.33 70.384C186.583 70.7387 185.771 71 184.894 71.168C184.035 71.3547 183.083 71.448 182.038 71.448C180.88 71.448 179.798 71.2893 178.79 70.972C177.8 70.6547 176.942 70.1787 176.214 69.544C175.486 68.8907 174.907 68.088 174.478 67.136C174.067 66.184 173.862 65.064 173.862 63.776C173.862 62.6747 174.151 61.6013 174.73 60.556C175.327 59.5107 176.298 58.5773 177.642 57.756C179.004 56.916 180.787 56.2253 182.99 55.684C185.211 55.1427 187.946 54.8347 191.194 54.76V52.856C191.194 50.8027 190.755 49.272 189.878 48.264C189 47.256 187.712 46.752 186.014 46.752C184.856 46.752 183.886 46.9013 183.102 47.2C182.318 47.48 181.636 47.788 181.058 48.124C180.479 48.46 179.966 48.7773 179.518 49.076C179.07 49.356 178.594 49.496 178.09 49.496C177.679 49.496 177.324 49.3933 177.026 49.188C176.746 48.964 176.512 48.6933 176.326 48.376L175.234 46.416ZM209.726 46.22C210.342 45.5853 210.976 45.016 211.63 44.512C212.302 43.9893 213.011 43.5413 213.758 43.168C214.504 42.7947 215.298 42.5053 216.138 42.3C216.978 42.0947 217.892 41.992 218.882 41.992C220.45 41.992 221.822 42.2533 222.998 42.776C224.192 43.2987 225.191 44.036 225.994 44.988C226.815 45.94 227.431 47.088 227.842 48.432C228.252 49.7573 228.458 51.2227 228.458 52.828V71H222.466V52.828C222.466 50.9053 222.018 49.412 221.122 48.348C220.244 47.284 218.9 46.752 217.09 46.752C215.746 46.752 214.495 47.06 213.338 47.676C212.199 48.292 211.126 49.132 210.118 50.196V71H204.098V42.44H207.738C208.559 42.44 209.082 42.8227 209.306 43.588L209.726 46.22ZM254.22 53.5C254.22 52.492 254.071 51.5587 253.772 50.7C253.492 49.8227 253.072 49.0667 252.512 48.432C251.952 47.7787 251.252 47.2747 250.412 46.92C249.591 46.5467 248.639 46.36 247.556 46.36C245.372 46.36 243.655 46.9853 242.404 48.236C241.154 49.4867 240.36 51.2413 240.024 53.5H254.22ZM239.856 57.196C239.931 58.82 240.183 60.2293 240.612 61.424C241.042 62.6 241.611 63.58 242.32 64.364C243.048 65.148 243.907 65.736 244.896 66.128C245.904 66.5013 247.024 66.688 248.256 66.688C249.432 66.688 250.45 66.5573 251.308 66.296C252.167 66.016 252.914 65.7173 253.548 65.4C254.183 65.064 254.724 64.7653 255.172 64.504C255.62 64.224 256.031 64.084 256.404 64.084C256.89 64.084 257.263 64.2707 257.524 64.644L259.232 66.856C258.523 67.696 257.72 68.4053 256.824 68.984C255.928 69.5627 254.976 70.0387 253.968 70.412C252.96 70.7667 251.924 71.0187 250.86 71.168C249.796 71.336 248.76 71.42 247.752 71.42C245.774 71.42 243.935 71.0933 242.236 70.44C240.556 69.768 239.091 68.788 237.84 67.5C236.608 66.212 235.638 64.616 234.928 62.712C234.238 60.808 233.892 58.6147 233.892 56.132C233.892 54.1533 234.2 52.3053 234.816 50.588C235.451 48.8707 236.347 47.3773 237.504 46.108C238.68 44.8387 240.099 43.84 241.76 43.112C243.44 42.3653 245.335 41.992 247.444 41.992C249.199 41.992 250.823 42.2813 252.316 42.86C253.81 43.42 255.098 44.2507 256.18 45.352C257.263 46.4533 258.103 47.8067 258.7 49.412C259.316 50.9987 259.624 52.8093 259.624 54.844C259.624 55.7773 259.522 56.4027 259.316 56.72C259.111 57.0373 258.738 57.196 258.196 57.196H239.856ZM271.37 29.56V71H265.35V29.56H271.37Z" fill="#202020"/>
</svg>
