<svg width="338" height="63" viewBox="0 0 338 63" fill="none" xmlns="http://www.w3.org/2000/svg">
    <path d="M54.04 15.296L43.264 50H37.432L29.848 26.288C29.64 25.712 29.448 25.008 29.272 24.176C29.176 24.576 29.08 24.952 28.984 25.304C28.888 25.656 28.784 25.984 28.672 26.288L21.016 50H15.16L4.408 15.296H9.808C10.368 15.296 10.832 15.432 11.2 15.704C11.584 15.96 11.84 16.312 11.968 16.76L17.872 37.52C18 38.032 18.12 38.592 18.232 39.2C18.36 39.792 18.488 40.416 18.616 41.072C18.744 40.4 18.88 39.768 19.024 39.176C19.184 38.584 19.352 38.032 19.528 37.52L26.344 16.76C26.472 16.392 26.72 16.056 27.088 15.752C27.472 15.448 27.936 15.296 28.48 15.296H30.376C30.936 15.296 31.392 15.432 31.744 15.704C32.096 15.976 32.36 16.328 32.536 16.76L39.328 37.52C39.664 38.512 39.968 39.656 40.24 40.952C40.448 39.688 40.68 38.544 40.936 37.52L46.84 16.76C46.936 16.36 47.176 16.016 47.56 15.728C47.96 15.44 48.432 15.296 48.976 15.296H54.04ZM69.5815 32.744C70.7655 32.744 71.7975 32.6 72.6775 32.312C73.5575 32.008 74.2855 31.584 74.8615 31.04C75.4535 30.48 75.8935 29.808 76.1815 29.024C76.4695 28.224 76.6135 27.336 76.6135 26.36C76.6135 25.432 76.4695 24.592 76.1815 23.84C75.8935 23.088 75.4615 22.448 74.8855 21.92C74.3095 21.392 73.5815 20.992 72.7015 20.72C71.8215 20.432 70.7815 20.288 69.5815 20.288H64.7575V32.744H69.5815ZM69.5815 15.296C71.9015 15.296 73.9095 15.568 75.6055 16.112C77.3015 16.656 78.7015 17.416 79.8055 18.392C80.9095 19.368 81.7255 20.536 82.2535 21.896C82.7975 23.256 83.0695 24.744 83.0695 26.36C83.0695 28.04 82.7895 29.584 82.2295 30.992C81.6695 32.384 80.8295 33.584 79.7095 34.592C78.5895 35.6 77.1815 36.384 75.4855 36.944C73.8055 37.504 71.8375 37.784 69.5815 37.784H64.7575V50H58.3015V15.296H69.5815ZM98.5083 31.808C99.7243 31.808 100.78 31.656 101.676 31.352C102.588 31.048 103.332 30.632 103.908 30.104C104.5 29.56 104.94 28.92 105.228 28.184C105.516 27.448 105.66 26.64 105.66 25.76C105.66 24 105.076 22.648 103.908 21.704C102.756 20.76 100.988 20.288 98.6043 20.288H94.4763V31.808H98.5083ZM115.116 50H109.284C108.18 50 107.38 49.568 106.884 48.704L99.5883 37.592C99.3163 37.176 99.0123 36.88 98.6763 36.704C98.3563 36.528 97.8763 36.44 97.2363 36.44H94.4763V50H88.0203V15.296H98.6043C100.956 15.296 102.972 15.544 104.652 16.04C106.348 16.52 107.732 17.2 108.804 18.08C109.892 18.96 110.692 20.016 111.204 21.248C111.716 22.464 111.972 23.808 111.972 25.28C111.972 26.448 111.796 27.552 111.444 28.592C111.108 29.632 110.612 30.576 109.956 31.424C109.316 32.272 108.516 33.016 107.556 33.656C106.612 34.296 105.532 34.8 104.316 35.168C104.732 35.408 105.116 35.696 105.468 36.032C105.82 36.352 106.14 36.736 106.428 37.184L115.116 50ZM132.198 34.856C132.198 34.088 132.086 33.368 131.862 32.696C131.654 32.008 131.334 31.408 130.902 30.896C130.47 30.384 129.918 29.984 129.246 29.696C128.59 29.392 127.822 29.24 126.942 29.24C125.23 29.24 123.878 29.728 122.886 30.704C121.91 31.68 121.286 33.064 121.014 34.856H132.198ZM120.894 38.432C120.99 39.696 121.214 40.792 121.566 41.72C121.918 42.632 122.382 43.392 122.958 44C123.534 44.592 124.214 45.04 124.998 45.344C125.798 45.632 126.678 45.776 127.638 45.776C128.598 45.776 129.422 45.664 130.11 45.44C130.814 45.216 131.422 44.968 131.934 44.696C132.462 44.424 132.918 44.176 133.302 43.952C133.702 43.728 134.086 43.616 134.454 43.616C134.95 43.616 135.318 43.8 135.558 44.168L137.262 46.328C136.606 47.096 135.87 47.744 135.054 48.272C134.238 48.784 133.382 49.2 132.486 49.52C131.606 49.824 130.702 50.04 129.774 50.168C128.862 50.296 127.974 50.36 127.11 50.36C125.398 50.36 123.806 50.08 122.334 49.52C120.862 48.944 119.582 48.104 118.494 47C117.406 45.88 116.55 44.504 115.926 42.872C115.302 41.224 114.99 39.32 114.99 37.16C114.99 35.48 115.262 33.904 115.806 32.432C116.35 30.944 117.126 29.656 118.134 28.568C119.158 27.464 120.398 26.592 121.854 25.952C123.326 25.312 124.982 24.992 126.822 24.992C128.374 24.992 129.806 25.24 131.118 25.736C132.43 26.232 133.558 26.96 134.502 27.92C135.446 28.864 136.182 30.032 136.71 31.424C137.254 32.8 137.526 34.376 137.526 36.152C137.526 37.048 137.43 37.656 137.238 37.976C137.046 38.28 136.678 38.432 136.134 38.432H120.894ZM154.983 39.488C153.271 39.568 151.831 39.72 150.663 39.944C149.495 40.152 148.559 40.424 147.855 40.76C147.151 41.096 146.647 41.488 146.343 41.936C146.039 42.384 145.887 42.872 145.887 43.4C145.887 44.44 146.191 45.184 146.799 45.632C147.423 46.08 148.231 46.304 149.223 46.304C150.439 46.304 151.487 46.088 152.367 45.656C153.263 45.208 154.135 44.536 154.983 43.64V39.488ZM141.399 28.808C144.231 26.216 147.639 24.92 151.623 24.92C153.063 24.92 154.351 25.16 155.487 25.64C156.623 26.104 157.583 26.76 158.367 27.608C159.151 28.44 159.743 29.44 160.143 30.608C160.559 31.776 160.767 33.056 160.767 34.448V50H158.079C157.519 50 157.087 49.92 156.783 49.76C156.479 49.584 156.239 49.24 156.063 48.728L155.535 46.952C154.911 47.512 154.303 48.008 153.711 48.44C153.119 48.856 152.503 49.208 151.863 49.496C151.223 49.784 150.535 50 149.799 50.144C149.079 50.304 148.279 50.384 147.399 50.384C146.359 50.384 145.399 50.248 144.519 49.976C143.639 49.688 142.879 49.264 142.239 48.704C141.599 48.144 141.103 47.448 140.751 46.616C140.399 45.784 140.223 44.816 140.223 43.712C140.223 43.088 140.327 42.472 140.535 41.864C140.743 41.24 141.079 40.648 141.543 40.088C142.023 39.528 142.639 39 143.391 38.504C144.143 38.008 145.063 37.576 146.151 37.208C147.255 36.84 148.535 36.544 149.991 36.32C151.447 36.08 153.111 35.936 154.983 35.888V34.448C154.983 32.8 154.631 31.584 153.927 30.8C153.223 30 152.207 29.6 150.879 29.6C149.919 29.6 149.119 29.712 148.479 29.936C147.855 30.16 147.303 30.416 146.823 30.704C146.343 30.976 145.903 31.224 145.503 31.448C145.119 31.672 144.687 31.784 144.207 31.784C143.791 31.784 143.439 31.68 143.151 31.472C142.863 31.248 142.631 30.992 142.455 30.704L141.399 28.808ZM183.99 30.584C183.814 30.808 183.638 30.984 183.462 31.112C183.302 31.24 183.062 31.304 182.742 31.304C182.438 31.304 182.142 31.216 181.854 31.04C181.566 30.848 181.222 30.64 180.822 30.416C180.422 30.176 179.942 29.968 179.382 29.792C178.838 29.6 178.158 29.504 177.342 29.504C176.302 29.504 175.39 29.696 174.606 30.08C173.822 30.448 173.166 30.984 172.638 31.688C172.126 32.392 171.742 33.248 171.486 34.256C171.23 35.248 171.102 36.376 171.102 37.64C171.102 38.952 171.238 40.12 171.51 41.144C171.798 42.168 172.206 43.032 172.734 43.736C173.262 44.424 173.902 44.952 174.654 45.32C175.406 45.672 176.254 45.848 177.198 45.848C178.142 45.848 178.902 45.736 179.478 45.512C180.07 45.272 180.566 45.016 180.966 44.744C181.366 44.456 181.71 44.2 181.998 43.976C182.302 43.736 182.638 43.616 183.006 43.616C183.486 43.616 183.846 43.8 184.086 44.168L185.79 46.328C185.134 47.096 184.422 47.744 183.654 48.272C182.886 48.784 182.086 49.2 181.254 49.52C180.438 49.824 179.59 50.04 178.71 50.168C177.846 50.296 176.982 50.36 176.118 50.36C174.598 50.36 173.166 50.08 171.822 49.52C170.478 48.944 169.302 48.112 168.294 47.024C167.286 45.936 166.486 44.608 165.894 43.04C165.318 41.456 165.03 39.656 165.03 37.64C165.03 35.832 165.286 34.16 165.798 32.624C166.326 31.072 167.094 29.736 168.102 28.616C169.11 27.48 170.358 26.592 171.846 25.952C173.334 25.312 175.046 24.992 176.982 24.992C178.822 24.992 180.43 25.288 181.806 25.88C183.198 26.472 184.446 27.32 185.55 28.424L183.99 30.584ZM197.714 50.384C195.57 50.384 193.922 49.784 192.77 48.584C191.634 47.368 191.066 45.696 191.066 43.568V29.816H188.546C188.226 29.816 187.954 29.712 187.73 29.504C187.506 29.296 187.394 28.984 187.394 28.568V26.216L191.354 25.568L192.602 18.848C192.682 18.528 192.834 18.28 193.058 18.104C193.282 17.928 193.57 17.84 193.922 17.84H196.994V25.592H203.57V29.816H196.994V43.16C196.994 43.928 197.178 44.528 197.546 44.96C197.93 45.392 198.45 45.608 199.106 45.608C199.474 45.608 199.778 45.568 200.018 45.488C200.274 45.392 200.49 45.296 200.666 45.2C200.858 45.104 201.026 45.016 201.17 44.936C201.314 44.84 201.458 44.792 201.602 44.792C201.778 44.792 201.922 44.84 202.034 44.936C202.146 45.016 202.266 45.144 202.394 45.32L204.17 48.2C203.306 48.92 202.314 49.464 201.194 49.832C200.074 50.2 198.914 50.384 197.714 50.384ZM219.582 32.744C220.766 32.744 221.798 32.6 222.678 32.312C223.558 32.008 224.286 31.584 224.862 31.04C225.454 30.48 225.894 29.808 226.182 29.024C226.47 28.224 226.614 27.336 226.614 26.36C226.614 25.432 226.47 24.592 226.182 23.84C225.894 23.088 225.462 22.448 224.886 21.92C224.31 21.392 223.582 20.992 222.702 20.72C221.822 20.432 220.782 20.288 219.582 20.288H214.758V32.744H219.582ZM219.582 15.296C221.902 15.296 223.91 15.568 225.606 16.112C227.302 16.656 228.702 17.416 229.806 18.392C230.91 19.368 231.726 20.536 232.254 21.896C232.798 23.256 233.07 24.744 233.07 26.36C233.07 28.04 232.79 29.584 232.23 30.992C231.67 32.384 230.83 33.584 229.71 34.592C228.59 35.6 227.182 36.384 225.486 36.944C223.806 37.504 221.838 37.784 219.582 37.784H214.758V50H208.302V15.296H219.582ZM249.342 39.488C247.63 39.568 246.19 39.72 245.022 39.944C243.854 40.152 242.918 40.424 242.214 40.76C241.51 41.096 241.006 41.488 240.702 41.936C240.398 42.384 240.246 42.872 240.246 43.4C240.246 44.44 240.55 45.184 241.158 45.632C241.782 46.08 242.59 46.304 243.582 46.304C244.798 46.304 245.846 46.088 246.726 45.656C247.622 45.208 248.494 44.536 249.342 43.64V39.488ZM235.758 28.808C238.59 26.216 241.998 24.92 245.982 24.92C247.422 24.92 248.71 25.16 249.846 25.64C250.982 26.104 251.942 26.76 252.726 27.608C253.51 28.44 254.102 29.44 254.502 30.608C254.918 31.776 255.126 33.056 255.126 34.448V50H252.438C251.878 50 251.446 49.92 251.142 49.76C250.838 49.584 250.598 49.24 250.422 48.728L249.894 46.952C249.27 47.512 248.662 48.008 248.07 48.44C247.478 48.856 246.862 49.208 246.222 49.496C245.582 49.784 244.894 50 244.158 50.144C243.438 50.304 242.638 50.384 241.758 50.384C240.718 50.384 239.758 50.248 238.878 49.976C237.998 49.688 237.238 49.264 236.598 48.704C235.958 48.144 235.462 47.448 235.11 46.616C234.758 45.784 234.582 44.816 234.582 43.712C234.582 43.088 234.686 42.472 234.894 41.864C235.102 41.24 235.438 40.648 235.902 40.088C236.382 39.528 236.998 39 237.75 38.504C238.502 38.008 239.422 37.576 240.51 37.208C241.614 36.84 242.894 36.544 244.35 36.32C245.806 36.08 247.47 35.936 249.342 35.888V34.448C249.342 32.8 248.99 31.584 248.286 30.8C247.582 30 246.566 29.6 245.238 29.6C244.278 29.6 243.478 29.712 242.838 29.936C242.214 30.16 241.662 30.416 241.182 30.704C240.702 30.976 240.262 31.224 239.862 31.448C239.478 31.672 239.046 31.784 238.566 31.784C238.15 31.784 237.798 31.68 237.51 31.472C237.222 31.248 236.99 30.992 236.814 30.704L235.758 28.808ZM266.253 28.4C266.749 27.904 267.269 27.448 267.813 27.032C268.373 26.6 268.957 26.24 269.565 25.952C270.189 25.648 270.853 25.416 271.557 25.256C272.261 25.08 273.029 24.992 273.861 24.992C275.205 24.992 276.397 25.224 277.437 25.688C278.477 26.136 279.341 26.776 280.029 27.608C280.733 28.424 281.261 29.408 281.613 30.56C281.981 31.696 282.165 32.952 282.165 34.328V50H276.237V34.328C276.237 32.824 275.893 31.664 275.205 30.848C274.517 30.016 273.469 29.6 272.061 29.6C271.037 29.6 270.077 29.832 269.181 30.296C268.285 30.76 267.437 31.392 266.637 32.192V50H260.709V25.376H264.333C265.101 25.376 265.605 25.736 265.845 26.456L266.253 28.4ZM303.667 34.856C303.667 34.088 303.555 33.368 303.331 32.696C303.123 32.008 302.803 31.408 302.371 30.896C301.939 30.384 301.387 29.984 300.715 29.696C300.059 29.392 299.291 29.24 298.411 29.24C296.699 29.24 295.347 29.728 294.355 30.704C293.379 31.68 292.755 33.064 292.483 34.856H303.667ZM292.363 38.432C292.459 39.696 292.683 40.792 293.035 41.72C293.387 42.632 293.851 43.392 294.427 44C295.003 44.592 295.683 45.04 296.467 45.344C297.267 45.632 298.147 45.776 299.107 45.776C300.067 45.776 300.891 45.664 301.579 45.44C302.283 45.216 302.891 44.968 303.403 44.696C303.931 44.424 304.387 44.176 304.771 43.952C305.171 43.728 305.555 43.616 305.923 43.616C306.419 43.616 306.787 43.8 307.027 44.168L308.731 46.328C308.075 47.096 307.339 47.744 306.523 48.272C305.707 48.784 304.851 49.2 303.955 49.52C303.075 49.824 302.171 50.04 301.243 50.168C300.331 50.296 299.443 50.36 298.579 50.36C296.867 50.36 295.275 50.08 293.803 49.52C292.331 48.944 291.051 48.104 289.963 47C288.875 45.88 288.019 44.504 287.395 42.872C286.771 41.224 286.459 39.32 286.459 37.16C286.459 35.48 286.731 33.904 287.275 32.432C287.819 30.944 288.595 29.656 289.603 28.568C290.627 27.464 291.867 26.592 293.323 25.952C294.795 25.312 296.451 24.992 298.291 24.992C299.843 24.992 301.275 25.24 302.587 25.736C303.899 26.232 305.027 26.96 305.971 27.92C306.915 28.864 307.651 30.032 308.179 31.424C308.723 32.8 308.995 34.376 308.995 36.152C308.995 37.048 308.899 37.656 308.707 37.976C308.515 38.28 308.147 38.432 307.603 38.432H292.363ZM319.444 14.336V50H313.516V14.336H319.444Z" fill="#202020"/>
</svg>
